<svg xmlns="http://www.w3.org/2000/svg" viewBox="0 0 100 100" width="100" height="100">
  <path fill="#FFFFFF" fill-opacity="0.2" d="M50 10C27.9 10 10 27.9 10 50s17.9 40 40 40c7.5 0 14.5-2.1 20.5-5.6l-5.7-5.7C59.6 81.3 55 83 50 83c-18.2 0-33-14.8-33-33s14.8-33 33-33 33 14.8 33 33v1.3c.3 0 .7.1 1 .1s.7-.1 1-.2V50C90 27.9 72.1 10 50 10zm21.2 71.2L82 82c3.4-6.2 5-13.2 5-20.5V50h-7v11.5c0 5.4-1.3 10.6-3.8 15.2zM65 50h-2.5c0-8.3-6.7-15-15-15s-15 6.7-15 15H30c0-9.9 8.1-18 18-18s18 8.1 18 18h-1zm-17.5 3h5v22h-5z"/>
</svg> 