<svg xmlns="http://www.w3.org/2000/svg" viewBox="0 0 100 100" width="100" height="100">
  <path fill="#FFFFFF" fill-opacity="0.2" d="M68.4,21.6C59.3,12.5,46.1,10.7,35.2,16l-4.5-4.5c-1.2-1.2-3.1-1.2-4.2,0l-4.2,4.2c-1.2,1.2-1.2,3.1,0,4.2 l4.5,4.5C20.7,31.9,18.9,45.1,28,54.2c9.2,9.2,24,9.2,33.2,0l11.3-11.3C81.7,33.8,77.5,21.6,68.4,21.6z M48.8,48.8 c-4.1,4.1-10.8,4.1-14.9,0s-4.1-10.8,0-14.9s10.8-4.1,14.9,0S52.9,44.7,48.8,48.8z"/>
  <path fill="#FFFFFF" fill-opacity="0.15" d="M83,43.4l-4.5,4.5c4.1,10.9,2.3,24.1-6.8,33.2c-9.2,9.2-24,9.2-33.2,0c-9.1-9.1-10.9-22.3-6.8-33.2 l-4.5-4.5c-1.2-1.2-1.2-3.1,0-4.2l4.2-4.2c1.2-1.2,3.1-1.2,4.2,0l4.5,4.5C52.3,31.9,59.3,28,68.4,28c9.2,0,17.6,3.8,23.5,9.8 l-11.3,11.3C76.5,45.3,80.7,43.4,83,43.4z"/>
</svg> 