<svg xmlns="http://www.w3.org/2000/svg" width="128" height="128" viewBox="0 0 24 24">
    <defs>
        <linearGradient id="grad1" x1="0%" y1="0%" x2="100%" y2="100%">
            <stop offset="0%" style="stop-color:#50E3C2;stop-opacity:1" />
            <stop offset="100%" style="stop-color:#4A90E2;stop-opacity:1" />
        </linearGradient>
    </defs>
    <path fill="url(#grad1)" d="M12,1.5C6.2,1.5,1.5,6.2,1.5,12s4.7,10.5,10.5,10.5s10.5-4.7,10.5-10.5S17.8,1.5,12,1.5z M18,17.25 c-1.5,0-2.25-1.5-2.25-1.5s-0.75,1.5-2.25,1.5S11.25,12,11.25,12s-1.5,3.75-3,3.75S6,12.75,6,12.75s3-3.75,3-6S11.25,3,11.25,3 s2.25,3.75,4.5,3.75S18,10.5,18,10.5S17.25,14.25,18,17.25z"/>
</svg> 