<svg xmlns="http://www.w3.org/2000/svg" viewBox="0 0 300 200" width="300" height="200">
  <defs>
    <linearGradient id="grad1" x1="0%" y1="0%" x2="100%" y2="0%">
      <stop offset="0%" style="stop-color:#C8E6C9;stop-opacity:1" />
      <stop offset="100%" style="stop-color:#A5D6A7;stop-opacity:1" />
    </linearGradient>
  </defs>
  <!-- Magnifying Glass -->
  <circle cx="150" cy="80" r="50" fill="none" stroke="#4A90E2" stroke-width="8"/>
  <line x1="185" y1="115" x2="220" y2="150" stroke="#4A90E2" stroke-width="8" stroke-linecap="round"/>
  <!-- Sad Face inside glass -->
  <path d="M135,90 a15,15 0 0,0 30,0" fill="none" stroke="#888888" stroke-width="3"/>
  <circle cx="140" cy="75" r="4" fill="#888888"/>
  <circle cx="160" cy="75" r="4" fill="#888888"/>
  <!-- A Book -->
  <path d="M50 150 L 50 50 C 50 40, 60 40, 60 50 L 60 150 C 60 160, 50 160, 50 150 Z" fill="#F8D568"/>
  <rect x="60" y="50" width="80" height="100" fill="#4A90E2"/>
  <line x1="70" y1="60" x2="130" y2="60" stroke="white" stroke-width="4"/>
  <line x1="70" y1="75" x2="130" y2="75" stroke="white" stroke-width="4"/>
  <line x1="70"y1="90" x2="100" y2="90" stroke="white" stroke-width="4"/>
</svg> 