<svg xmlns="http://www.w3.org/2000/svg" viewBox="0 0 300 200" width="300" height="200">
  <defs>
    <linearGradient id="grad1" x1="0%" y1="0%" x2="100%" y2="0%">
      <stop offset="0%" style="stop-color:#A8BFFF;stop-opacity:1" />
      <stop offset="100%" style="stop-color:#F2C2A0;stop-opacity:1" />
    </linearGradient>
  </defs>
  <!-- Trophy -->
  <path fill="#F8D568" d="M150,50 C180,50 180,20 150,20 C120,20 120,50 150,50 Z M120,55 L180,55 L175,130 L125,130 Z"/>
  <rect x="135" y="130" width="30" height="20" fill="#F5A623"/>
  <rect x="120" y="150" width="60" height="10" rx="5" fill="#F5A623"/>
  <!-- Stars -->
  <path fill="#FFC107" d="M80,80 l10,30 l30,-20 l-20,30 l30,-20"/>
  <path fill="#FFC107" d="M220,80 l-10,30 l-30,-20 l20,30 l-30,-20"/>
  <!-- Character -->
  <circle cx="150" cy="100" r="15" fill="#FFE0B2"/>
  <path d="M145,105 a10,10 0 0,0 10,0" fill="none" stroke="#FF9800" stroke-width="2"/>
  <circle cx="147" cy="98" r="2" fill="#333"/>
  <circle cx="153" cy="98" r="2" fill="#333"/>
</svg> 