<?xml version="1.0" standalone="no"?><!DOCTYPE svg PUBLIC "-//W3C//DTD SVG 1.1//EN" "http://www.w3.org/Graphics/SVG/1.1/DTD/svg11.dtd"><svg t="1751179646174" class="icon" viewBox="0 0 1024 1024" version="1.1" xmlns="http://www.w3.org/2000/svg" p-id="7613" xmlns:xlink="http://www.w3.org/1999/xlink" width="200" height="200"><path d="M454.826667 204.288V96.597333c0-30.72 15.36-46.08 53.76-46.08s61.610667 15.36 61.610666 46.08v107.690667h292.352c38.4-7.68 76.970667 23.04 76.970667 53.76v353.792c0 69.290667-23.04 92.330667-84.650667 92.330667H570.197333v215.381333c0 38.4-23.04 53.76-61.610666 53.76-38.4 0-61.610667-15.36-61.610667-46.08V711.850667H170.154667c-61.610667 0-84.650667-30.72-84.650667-100.010667V288.768c-7.68-61.610667 23.04-84.650667 84.650667-84.650667h284.672zM231.765333 596.48h223.061334V319.658667H231.765333c-23.04 0-30.72 7.68-30.72 30.72V573.44c-0.170667 15.36 7.68 23.04 30.72 23.04z m592.213334-23.04V342.698667c0-15.36-7.68-30.72-23.04-30.72H570.197333V588.8h230.741334c15.36 7.68 23.04 0 23.04-15.36z m0 0" fill="#2C2C2C" p-id="7614"></path></svg>