<?xml version="1.0" standalone="no"?><!DOCTYPE svg PUBLIC "-//W3C//DTD SVG 1.1//EN" "http://www.w3.org/Graphics/SVG/1.1/DTD/svg11.dtd"><svg t="1751179752455" class="icon" viewBox="0 0 1024 1024" version="1.1" xmlns="http://www.w3.org/2000/svg" p-id="19845" xmlns:xlink="http://www.w3.org/1999/xlink" width="200" height="200"><path d="M436.224 306.176H169.472v143.36h245.76c17.92 0 31.744 4.096 40.448 12.288 8.704 8.192 13.312 18.944 13.312 32.256 0 13.312-4.608 24.064-13.312 32.256-8.704 8.192-22.528 12.8-40.448 12.8h-245.76v166.4H445.44c18.432 0 32.768 4.096 41.984 12.8C496.64 727.04 501.76 738.304 501.76 752.64c0 13.824-4.608 25.088-14.336 33.792-9.216 8.704-23.552 12.8-41.984 12.8H123.904c-25.6 0-44.544-5.632-55.808-16.896-11.264-11.264-16.896-29.696-16.896-55.296V287.232c0-16.896 2.56-30.72 7.68-41.472 5.12-10.752 12.8-18.432 23.552-23.552 10.752-5.12 24.576-7.168 41.472-7.168h312.32c18.944 0 32.768 4.096 41.984 12.8 9.216 8.192 13.824 19.456 13.824 32.768 0 13.824-4.608 25.088-13.824 33.28-9.216 8.192-23.04 12.288-41.984 12.288z m250.88 120.832V440.32c18.944-25.088 39.936-43.52 62.976-55.808 22.528-11.776 48.64-17.92 78.336-17.92 28.672 0 54.272 6.144 76.8 18.944 22.016 11.776 39.936 30.208 50.688 52.736 7.168 13.312 11.776 27.648 13.824 43.008 2.048 15.36 3.072 34.816 3.072 58.88v202.752c0 22.016-5.12 38.4-14.848 49.664-9.728 11.264-23.04 16.896-38.912 16.896-16.384 0-29.184-5.632-39.424-16.896-10.24-11.264-15.36-27.648-15.36-49.152v-181.248c0-35.84-5.12-63.488-14.848-82.432-9.728-18.944-29.696-28.672-59.392-28.672-18.944 0-37.888 6.144-53.248 17.408-15.872 11.776-27.648 27.648-35.328 47.616-5.12 16.384-8.192 46.592-8.192 91.136v136.192c0 22.016-5.12 38.4-15.36 49.664-10.24 11.264-23.552 16.384-39.424 16.384-15.872 0-28.672-5.632-38.912-16.896-10.24-11.264-15.36-27.648-15.36-49.152V428.544c0-20.992 4.608-36.352 13.312-46.592 9.216-10.24 21.504-15.36 36.864-15.36 9.728 0 18.432 2.048 26.112 6.656 7.68 4.608 13.824 11.264 18.432 20.48 5.632 9.216 8.192 19.968 8.192 33.28z" p-id="19846"></path></svg>